<svg xmlns="http://www.w3.org/2000/svg" viewBox="0 0 25 25">
    <g fill="none" class="nc-icon-wrapper">
        <path d="M12.75 1c2.094.031 3.984.547 5.672 1.547 1.687 1 3.031 2.344 4.031 4.031 1 1.688 1.516 3.578 1.547 5.672-.031.469-.281.719-.75.75-.469-.031-.719-.281-.75-.75-.063-2.75-1.016-5.047-2.86-6.89-1.843-1.844-4.14-2.798-6.89-2.86-.469-.031-.719-.281-.75-.75.031-.469.281-.719.75-.75zm.75 9c.438 0 .797.14 1.078.422.281.281.422.64.422 1.078 0 .438-.14.797-.422 1.078-.281.281-.64.422-1.078.422-.438 0-.797-.14-1.078-.422-.281-.281-.422-.64-.422-1.078 0-.438.14-.797.422-1.078.281-.281.64-.422 1.078-.422zM12 6.25c.031-.469.281-.719.75-.75 1.906.063 3.5.719 4.781 1.969 1.25 1.281 1.907 2.875 1.969 4.781-.031.469-.281.719-.75.75-.469-.031-.719-.281-.75-.75-.031-1.5-.547-2.734-1.547-3.703-.969-1-2.203-1.516-3.703-1.547-.469-.031-.719-.281-.75-.75zm3.422 8.203c.625-.687 1.36-.875 2.203-.562l5.25 2.25c.406.187.719.484.938.89.187.375.234.782.14 1.219l-1.125 5.25c-.25.938-.86 1.438-1.828 1.5h-.844a4.64 4.64 0 0 0-.656-.047c-3.688-.312-6.984-1.422-9.89-3.328a21.016 21.016 0 0 1-6.985-7.453C.906 11.14.031 7.75 0 4c.063-.969.563-1.578 1.5-1.828l5.25-1.125a1.804 1.804 0 0 1 1.219.14c.406.22.703.532.89.938l2.25 5.25c.313.844.125 1.578-.562 2.203l-1.875 1.547a14.322 14.322 0 0 0 5.203 5.203l1.547-1.875zM21 23.5c.188 0 .313-.094.375-.281l1.125-5.25c.031-.188-.047-.328-.234-.422l-5.25-2.25c-.157-.063-.297-.031-.422.094l-1.547 1.921c-.563.563-1.203.672-1.922.329a15.469 15.469 0 0 1-5.766-5.766c-.343-.719-.234-1.344.329-1.875l1.921-1.594c.125-.125.157-.265.094-.422l-2.25-5.25c-.062-.187-.203-.265-.422-.234l-5.25 1.125c-.187.063-.281.188-.281.375.031 3.625.922 6.906 2.672 9.844a19.192 19.192 0 0 0 6.984 6.984c2.938 1.75 6.219 2.64 9.844 2.672z"
              fill="currentColor"></path>
    </g>
</svg>