<svg xmlns="http://www.w3.org/2000/svg" viewBox="0 0 93 80"><g fill="none" class="nc-icon-wrapper"><path d="M9.28 79.72l-6.4-8.32c3.2-5.547 6.187-11.2 8.96-16.96 2.773-5.974 4.267-11.734 4.48-17.28L0 33.64V.68h39.36v23.68c0 13.653-2.987 24.853-8.96 33.6-5.76 8.533-12.8 15.786-21.12 21.76zm53.12 0L56 71.4a257.24 257.24 0 0 0 8.96-16.96c2.773-5.974 4.267-11.734 4.48-17.28l-16.32-3.52V.68h39.36v23.68c0 13.653-2.987 24.853-8.96 33.6-5.76 8.533-12.8 15.786-21.12 21.76z" fill="currentColor"></path></g></svg>